<svg width="400" height="400" viewBox="0 0 400 400" fill="none" xmlns="http://www.w3.org/2000/svg">
<rect width="400" height="400" fill="url(#paint0_linear_2020_31261)"/>
<rect width="400" height="400" fill="#1C3567"/>
<path fill-rule="evenodd" clip-rule="evenodd" d="M160.354 152.108L188.137 97.8847C191.342 91.6293 199.091 89.1162 205.445 92.2715C207.94 93.5102 209.958 95.5136 211.195 97.9796L237.434 150.271C239.577 154.543 243.767 157.46 248.573 158.025L303.518 164.484C310.977 165.361 316.302 172.025 315.411 179.368C315.044 182.392 313.641 185.203 311.433 187.337L268.004 229.3C266.251 230.994 265.401 233.397 265.707 235.797L272.924 292.45C273.957 300.56 268.116 307.959 259.878 308.976C256.756 309.362 253.589 308.773 250.825 307.293L204.942 282.73C201.623 280.953 197.626 280.902 194.261 282.594L146.723 306.49C140.032 309.853 131.839 307.24 128.423 300.654C127.145 298.19 126.674 295.396 127.074 292.657L130.873 266.665C132.732 253.952 140.758 242.925 152.388 237.105L205.187 210.682C206.597 209.977 207.159 208.28 206.442 206.892C205.887 205.817 204.698 205.208 203.485 205.378L138.912 214.442C129.041 215.827 119.03 213.097 111.291 206.908L89.7829 189.708C83.6453 184.8 82.7115 175.922 87.6973 169.88C90.0158 167.07 93.3437 165.246 96.9911 164.786L152.131 157.832C155.667 157.386 158.748 155.241 160.354 152.108Z" fill="url(#paint1_linear_2020_31261)"/>
<defs>
<linearGradient id="paint0_linear_2020_31261" x1="200" y1="0.00463674" x2="329.227" y2="395.028" gradientUnits="userSpaceOnUse">
<stop stop-color="#FFC44D"/>
<stop offset="1" stop-color="#FFAE0D"/>
</linearGradient>
<linearGradient id="paint1_linear_2020_31261" x1="200" y1="90.912" x2="267.274" y2="308.653" gradientUnits="userSpaceOnUse">
<stop stop-color="#FFD147"/>
<stop offset="1" stop-color="#FFB526"/>
</linearGradient>
</defs>
</svg>
